<svg width="35" height="35" viewBox="0 0 35 35" fill="none" xmlns="http://www.w3.org/2000/svg">
<path d="M17.5 5.83335C17.1132 5.83335 16.7423 5.987 16.4688 6.26049C16.1953 6.53398 16.0417 6.90491 16.0417 7.29168C16.0417 9.75918 13.0579 10.9958 11.3123 9.25022C11.1778 9.11094 11.0168 8.99984 10.8389 8.92341C10.661 8.84698 10.4696 8.80675 10.276 8.80507C10.0824 8.80339 9.89032 8.84028 9.71109 8.91361C9.53187 8.98694 9.36905 9.09522 9.23212 9.23215C9.09519 9.36908 8.98691 9.5319 8.91358 9.71113C8.84025 9.89035 8.80336 10.0824 8.80504 10.276C8.80672 10.4697 8.84695 10.661 8.92338 10.8389C8.99981 11.0169 9.11091 11.1778 9.25019 11.3123C10.9958 13.0579 9.76061 16.0417 7.29165 16.0417C6.90488 16.0417 6.53395 16.1953 6.26046 16.4688C5.98696 16.7423 5.83332 17.1132 5.83332 17.5C5.83332 17.8868 5.98696 18.2577 6.26046 18.5312C6.53395 18.8047 6.90488 18.9583 7.29165 18.9583C9.75915 18.9583 10.9958 21.9421 9.25019 23.6877C8.98455 23.9628 8.83756 24.3311 8.84088 24.7135C8.8442 25.0959 8.99757 25.4617 9.26796 25.732C9.53835 26.0024 9.90411 26.1558 10.2865 26.1591C10.6689 26.1624 11.0372 26.0155 11.3123 25.7498C13.0579 24.0042 16.0417 25.2394 16.0417 27.7084C16.0417 28.0951 16.1953 28.4661 16.4688 28.7395C16.7423 29.013 17.1132 29.1667 17.5 29.1667C17.8868 29.1667 18.2577 29.013 18.5312 28.7395C18.8047 28.4661 18.9583 28.0951 18.9583 27.7084C18.9583 25.2409 21.9421 24.0042 23.6877 25.7498C23.8222 25.8891 23.9831 26.0002 24.1611 26.0766C24.339 26.1531 24.5303 26.1933 24.724 26.195C24.9176 26.1966 25.1097 26.1597 25.2889 26.0864C25.4681 26.0131 25.6309 25.9048 25.7679 25.7679C25.9048 25.631 26.0131 25.4681 26.0864 25.2889C26.1597 25.1097 26.1966 24.9177 26.1949 24.724C26.1933 24.5304 26.153 24.339 26.0766 24.1611C26.0002 23.9832 25.8891 23.8223 25.7498 23.6877C24.0042 21.9421 25.2394 18.9583 27.7083 18.9583C28.0951 18.9583 28.466 18.8047 28.7395 18.5312C29.013 18.2577 29.1667 17.8868 29.1667 17.5C29.1667 17.1132 29.013 16.7423 28.7395 16.4688C28.466 16.1953 28.0951 16.0417 27.7083 16.0417C25.2408 16.0417 24.0042 13.0579 25.7498 11.3123C26.0154 11.0373 26.1624 10.6689 26.1591 10.2865C26.1558 9.90414 26.0024 9.53838 25.732 9.26799C25.4616 8.9976 25.0959 8.84423 24.7135 8.84091C24.3311 8.83759 23.9627 8.98458 23.6877 9.25022C21.9421 10.9958 18.9583 9.76064 18.9583 7.29168C18.9583 6.90491 18.8047 6.53398 18.5312 6.26049C18.2577 5.987 17.8868 5.83335 17.5 5.83335ZM13.1367 6.96647C13.2173 5.86437 13.712 4.83361 14.5214 4.08128C15.3308 3.32894 16.3949 2.91077 17.5 2.91077C18.605 2.91077 19.6692 3.32894 20.4786 4.08128C21.288 4.83361 21.7827 5.86437 21.8633 6.96647C22.7001 6.24778 23.7775 5.87171 24.8798 5.91357C25.9821 5.95542 27.0279 6.41211 27.8078 7.19219C28.5877 7.97227 29.0441 9.01816 29.0857 10.1204C29.1273 11.2227 28.751 12.3 28.0321 13.1367C29.1342 13.2171 30.165 13.7117 30.9175 14.521C31.67 15.3302 32.0883 16.3943 32.0885 17.4993C32.0887 18.6044 31.6707 19.6686 30.9185 20.4781C30.1663 21.2876 29.1356 21.7825 28.0335 21.8633C28.7522 22.7002 29.1283 23.7776 29.0864 24.8798C29.0446 25.9821 28.5879 27.0279 27.8078 27.8078C27.0277 28.5877 25.9818 29.0441 24.8796 29.0857C23.7773 29.1273 22.7 28.751 21.8633 28.0321C21.7827 29.1342 21.288 30.165 20.4786 30.9173C19.6692 31.6696 18.605 32.0878 17.5 32.0878C16.3949 32.0878 15.3308 31.6696 14.5214 30.9173C13.712 30.165 13.2173 29.1342 13.1367 28.0321C12.3 28.751 11.2227 29.1273 10.1204 29.0857C9.01813 29.0441 7.97224 28.5877 7.19216 27.8078C6.41208 27.0279 5.95539 25.9821 5.91354 24.8798C5.87168 23.7776 6.24775 22.7002 6.96644 21.8633C5.86434 21.7827 4.83358 21.288 4.08124 20.4786C3.32891 19.6692 2.91074 18.6051 2.91074 17.5C2.91074 16.395 3.32891 15.3308 4.08124 14.5214C4.83358 13.712 5.86434 13.2173 6.96644 13.1367C6.24556 12.3002 5.86766 11.222 5.90856 10.1185C5.94946 9.01504 6.40614 7.96782 7.18696 7.187C7.96779 6.40617 9.01501 5.94949 10.1185 5.90859C11.222 5.86769 12.3002 6.24559 13.1367 6.96647Z" fill="#5B626B"/>
<path d="M17.5 14.5833C16.7264 14.5833 15.9846 14.8906 15.4376 15.4376C14.8906 15.9846 14.5833 16.7264 14.5833 17.5C14.5833 18.2735 14.8906 19.0154 15.4376 19.5624C15.9846 20.1094 16.7264 20.4167 17.5 20.4167C18.2735 20.4167 19.0154 20.1094 19.5624 19.5624C20.1094 19.0154 20.4167 18.2735 20.4167 17.5C20.4167 16.7264 20.1094 15.9846 19.5624 15.4376C19.0154 14.8906 18.2735 14.5833 17.5 14.5833ZM13.3758 13.3758C13.9139 12.8187 14.5576 12.3743 15.2693 12.0686C15.981 11.7628 16.7464 11.6019 17.521 11.5952C18.2955 11.5885 19.0637 11.7361 19.7806 12.0294C20.4975 12.3227 21.1488 12.7558 21.6965 13.3035C22.2442 13.8512 22.6773 14.5025 22.9706 15.2194C23.2639 15.9363 23.4115 16.7044 23.4048 17.479C23.3981 18.2535 23.2371 19.019 22.9314 19.7307C22.6257 20.4424 22.1813 21.086 21.6242 21.6242C20.524 22.6867 19.0505 23.2747 17.521 23.2614C15.9915 23.2481 14.5284 22.6346 13.4469 21.5531C12.3653 20.4715 11.7519 19.0085 11.7386 17.479C11.7253 15.9495 12.3132 14.476 13.3758 13.3758Z" fill="#5B626B"/>
</svg>
